<?xml version="1.0"?>
<svg xmlns="http://www.w3.org/2000/svg" height="512px" viewBox="0 -1 495.088 495" width="512px" class=""><g><path d="m103.542969 444.195312h16v16h-16zm0 0" data-original="#000000" class="active-path" data-old_color="#000000" fill="#FFFFFF"/><path d="m135.542969 444.195312h16v16h-16zm0 0" data-original="#000000" class="active-path" data-old_color="#000000" fill="#FFFFFF"/><path d="m167.542969 444.195312h16v16h-16zm0 0" data-original="#000000" class="active-path" data-old_color="#000000" fill="#FFFFFF"/><path d="m407.542969 364.195312h-16v-48h-32v-56.183593c0-17.808594-11.453125-33.199219-28.503907-38.320313l-51.496093-15.449218v-12.15625c14.488281-10.136719 24-26.914063 24-45.890626v-24c0-30.871093-25.128907-56-56-56-30.871094 0-56 25.128907-56 56v24c0 18.976563 9.511719 35.753907 24 45.890626v12.15625l-51.496094 15.449218c-17.046875 5.113282-28.503906 20.511719-28.503906 38.320313v56.183593h-32v48h-16v48h-16v80h352v-80h-16zm-200-216v-24c0-22.054687 17.945312-40 40-40 22.058593 0 40 17.945313 40 40v24c0 22.058594-17.941407 40-40 40-22.054688 0-40-17.941406-40-40zm40 56c5.5625 0 10.929687-.839843 16-2.359374v8.152343c-1.984375 3.0625-7.496094 10.207031-16 10.207031-8.503907 0-14.015625-7.144531-16-10.207031v-8.152343c5.074219 1.519531 10.441406 2.359374 16 2.359374zm-96 55.816407c0-10.6875 6.871093-19.917969 17.105469-22.992188l51.511718-15.457031c4.65625 6.050781 13.664063 14.632812 27.382813 14.632812 13.722656 0 22.730469-8.582031 27.386719-14.632812l51.511718 15.457031c10.230469 3.066407 17.101563 12.304688 17.101563 22.992188v56.183593h-32v-56h-16v56h-96v-56h-16v56h-32zm-32 72.183593h256v32h-256zm-16 48h288v32h-288zm304 96h-320v-48h320zm0 0" data-original="#000000" class="active-path" data-old_color="#000000" fill="#FFFFFF"/><path d="m71.542969 156.195312h16v-88h-22.367188l38.367188-43.847656 38.367187 43.847656h-22.367187v56h16v-40h41.632812l-73.632812-84.1523432-73.632813 84.1523432h41.632813zm0 0" data-original="#000000" class="active-path" data-old_color="#000000" fill="#FFFFFF"/><path d="m119.542969 140.195312h16v16h-16zm0 0" data-original="#000000" class="active-path" data-old_color="#000000" fill="#FFFFFF"/><path d="m119.542969 172.195312h16v16h-16zm0 0" data-original="#000000" class="active-path" data-old_color="#000000" fill="#FFFFFF"/><path d="m447.542969 412.195312h16v16h-16zm0 0" data-original="#000000" class="active-path" data-old_color="#000000" fill="#FFFFFF"/><path d="m447.542969 380.195312h16v16h-16zm0 0" data-original="#000000" class="active-path" data-old_color="#000000" fill="#FFFFFF"/><path d="m439.542969 174.429688-55.542969 77.765624h31.542969v56h16v-72h-16.453125l24.453125-34.230468 24.457031 34.230468h-16.457031v128h16v-112h31.546875zm0 0" data-original="#000000" class="active-path" data-old_color="#000000" fill="#FFFFFF"/><path d="m31.542969 412.195312h16v16h-16zm0 0" data-original="#000000" class="active-path" data-old_color="#000000" fill="#FFFFFF"/><path d="m31.542969 380.195312h16v16h-16zm0 0" data-original="#000000" class="active-path" data-old_color="#000000" fill="#FFFFFF"/><path d="m63.542969 308.195312h16v-56h31.546875l-55.546875-77.765624-55.542969 77.765624h31.542969v112h16v-128h-16.453125l24.453125-34.230468 24.457031 34.230468h-16.457031zm0 0" data-original="#000000" class="active-path" data-old_color="#000000" fill="#FFFFFF"/><path d="m359.542969 124.195312h16v-56h-22.367188l38.367188-43.847656 38.367187 43.847656h-22.367187v88h16v-72h41.632812l-73.632812-84.1523432-73.632813 84.1523432h41.632813zm0 0" data-original="#000000" class="active-path" data-old_color="#000000" fill="#FFFFFF"/><path d="m359.542969 140.195312h16v16h-16zm0 0" data-original="#000000" class="active-path" data-old_color="#000000" fill="#FFFFFF"/><path d="m359.542969 172.195312h16v16h-16zm0 0" data-original="#000000" class="active-path" data-old_color="#000000" fill="#FFFFFF"/></g> </svg>
