<?xml version="1.0"?>
<svg xmlns="http://www.w3.org/2000/svg" height="512px" viewBox="-2 0 475 475.59961" width="512px" class=""><g><path d="m48.0625 475.597656h374.480469c26.464843 0 47.757812-21.902344 47.757812-48.371094v-249.375c.046875-2.371093-.976562-4.636718-2.785156-6.167968l-188.96875-156.140625c-25.140625-20.722657-61.441406-20.722657-86.582031 0l-188.894532 156.140625c-1.800781 1.535156-2.820312 3.800781-2.769531 6.167968v249.375c0 26.46875 21.292969 48.371094 47.761719 48.371094zm94.648438-130.5-121.757813 98.820313c-3.066406-5.023438-4.679687-10.804688-4.652344-16.691407v-227.398437zm-94.648438 114.5c-5.511719-.058594-10.914062-1.542968-15.679688-4.304687l153.445313-124.570313c31.3125 13.433594 66.742187 13.539063 98.132813.285156l153.515624 124.703126c-4.585937 2.496093-9.714843 3.832031-14.933593 3.886718zm187.238281-134.769531c-60.328125 0-109.234375-48.90625-109.234375-109.234375s48.90625-109.234375 109.234375-109.234375 109.234375 48.90625 109.234375 109.234375c-.066406 60.300781-48.933594 109.164062-109.234375 109.234375zm213.980469 119.757813-120.578125-97.765626 125.597656-146.84375v227.25c.046875 6.152344-1.699219 12.183594-5.019531 17.359376zm-247.09375-416.707032c19.230469-15.847656 46.996094-15.847656 66.230469 0l182.988281 151.152344-134.957031 157.707031-16.882813-13.699219c48.273438-28.867187 71.382813-86.375 56.5-140.617187-14.882812-54.242187-64.105468-91.90625-120.351562-92.09375s-105.714844 37.148437-120.960938 91.289063c-15.242187 54.140624 7.480469 111.804687 55.5625 140.992187l-15.292968 12.398437-135.84375-155.964843zm0 0" data-original="#000000" class="active-path" data-old_color="#000000" fill="#FFFFFF"/><path d="m315.777344 248.238281-29.222656-29.222656c-3.121094-3.121094-7.363282-4.863281-11.777344-4.839844-4.414063.023438-8.636719 1.8125-11.722656 4.96875l-6.1875 6.332031c-3.957032 4.066407-5.550782 9.871094-4.230469 15.386719l-4 4c-.25.25-.484375.246094-.679688.058594l-41.839843-41.84375c-.097657-.183594-.074219-.40625.0625-.5625l3.910156-3.910156c5.648437 1.457031 11.644531-.183594 15.757812-4.320313l6.304688-6.300781c6.445312-6.457031 6.445312-16.914063 0-23.371094l-29.226563-29.226562c-6.457031-6.441407-16.910156-6.441407-23.371093 0l-6.304688 6.304687c-4.90625 4.925782-6.210938 12.390625-3.265625 18.6875l-8.945313 8.941406c-14.085937 14.121094-14.085937 36.984376 0 51.105469l69.636719 69.632813c14.121094 14.09375 36.984375 14.09375 51.105469 0l8.933594-9.023438c2.246094 1.0625 4.703125 1.59375 7.1875 1.5625h.09375c4.410156.035156 8.640625-1.726562 11.722656-4.878906l6.191406-6.285156c6.300782-6.46875 6.242188-16.796875-.132812-23.195313zm-131.214844-95.234375 6.296875-6.304687c.207031-.207031.542969-.207031.746094 0l29.226562 29.226562c.097657.097657.152344.230469.152344.371094s-.054687.273437-.152344.371094l-6.300781 6.308593c-.207031.203126-.539062.203126-.746094 0l-29.222656-29.226562c-.207031-.207031-.207031-.539062 0-.746094zm57.425781 125.742188-69.636719-69.636719c-7.851562-7.867187-7.851562-20.609375 0-28.476563l8.234376-8.230468 16.539062 16.539062-2.199219 2.199219c-6.230469 6.09375-6.582031 16.003906-.804687 22.527344.257812.292969.527344.574219.742187.785156l41.839844 41.839844c6.425781 6.371093 16.796875 6.34375 23.195313-.058594l2.304687-2.308594 16.539063 16.542969-8.273438 8.277344c-7.871094 7.851562-20.613281 7.851562-28.480469 0zm62.480469-18.453125-6.191406 6.238281c-.039063.039062-.152344.066406-.371094.066406s-.335938-.023437-.375-.0625l-29.230469-29.175781c-.097656-.09375-.152343-.222656-.152343-.359375s.054687-.265625.152343-.359375l6.191407-6.105469c.039062-.039062.15625.0625.375.0625.214843 0 .332031-.097656.371093-.058594l29.222657 29.121094c.097656.074219.15625.191406.15625.3125 0 .125-.054688.242188-.148438.320313zm0 0" data-original="#000000" class="active-path" data-old_color="#000000" fill="#FFFFFF"/></g> </svg>
